<?xml version="1.0" encoding="UTF-8"?>
<!DOCTYPE svg PUBLIC "-//W3C//DTD SVG 1.1//EN" "http://www.w3.org/Graphics/SVG/1.1/DTD/svg11.dtd">
<!-- Creator: CorelDRAW 2020 (64 Bit) -->
<svg xmlns="http://www.w3.org/2000/svg" xml:space="preserve" width="150.438mm" height="150.453mm" version="1.1" style="shape-rendering:geometricPrecision; text-rendering:geometricPrecision; image-rendering:optimizeQuality; fill-rule:evenodd; clip-rule:evenodd"
viewBox="0 0 995.24 995.34"
 xmlns:xlink="http://www.w3.org/1999/xlink"
 xmlns:xodm="http://www.corel.com/coreldraw/odm/2003">
 <defs>
  <style type="text/css">
   <![CDATA[
    .fil0 {fill:#FEFEFE}
   ]]>
  </style>
 </defs>
 <g id="Camada_x0020_1">
  <metadata id="CorelCorpID_0Corel-Layer"/>
  <g id="_1792200730400">
   <path class="fil0" d="M100.34 497.48c0,-103.65 43.13,-208.05 111.43,-275.95 14.67,-14.59 33.99,-32.94 50.96,-44.71 62.57,-43.4 136.98,-76.05 215.65,-76.05 73.25,0 126.54,5.78 189.03,37.33 70.87,35.79 107.99,68.19 153.68,128.68 38.86,51.46 72.67,140.25 72.67,212.03 0,74.4 -6.83,126.8 -38.53,190.16 -22.76,45.48 -45.72,76.96 -81.06,112.62 -116.83,117.88 -313.41,146.93 -460.7,67.48 -47.01,-25.36 -24.98,-25.93 -81.03,-11.82 -31.52,7.93 -61.96,14.82 -92.42,21.92l30.68 -114.12c6.15,-19.77 -0.71,-22.71 -22.7,-59.55 -13.63,-22.83 -25.74,-56.34 -33.18,-83.5 -8.43,-30.82 -14.48,-66.1 -14.48,-104.53zm-100.34 -14c0,61.82 3.23,103.15 21.85,160.16 13.21,40.43 15.8,45.92 33.37,80.97 15.11,30.13 10.21,19.12 0.78,57.56 -7.05,28.73 -55.7,198.45 -56.01,212.35 13.68,-0.3 231.29,-52.97 246.47,-57.02 21.92,-5.85 12.49,-1.07 51.55,15.69 18.74,8.04 36.21,14.44 56.38,20.62 149.43,45.82 303.55,16.78 431.07,-71.24 28.72,-19.83 49.48,-39.49 73.89,-63.79 5.54,-5.51 6.16,-6.98 10.71,-12.63 4.02,-4.99 6.71,-6.8 11.03,-12.3 27.86,-35.44 52.69,-71.01 71.67,-115.02 60.4,-140.06 59.1,-306.42 -21.56,-446.51 -13.85,-24.06 -38.64,-62.33 -57.83,-82.18l-70.94 -66.74c-67.73,-54.27 -183.75,-102.5 -267.99,-103.04 -75.56,-0.48 -92.73,-2.98 -166.24,15.9 -75.43,19.38 -138.51,55.99 -196.22,104.81 -102.81,86.96 -171.98,226.65 -171.98,362.4z"/>
   <path class="fil0" d="M245.02 376.14c0,63.94 19.89,97.08 53.68,144.67 33.32,46.92 41.62,56.67 82.25,97.44 14.5,14.55 31.45,28.42 48.06,40.62l56.38 34.62c77.53,34.24 180.19,74.98 246.7,-2.97 11.2,-13.13 14.31,-29.3 17.45,-50.29 5.18,-34.68 -8.97,-31.44 -71.25,-62.63 -69.61,-34.86 -54.44,-22.53 -83.83,10.29 -29.69,33.15 -21.91,50.8 -96.43,6.62 -41.36,-24.52 -62.72,-44.86 -91.68,-81 -6.59,-8.22 -32.97,-42.84 -32.97,-53.37 0,-13.33 42,-39.55 42,-67.67 0,-6.08 -22.93,-59.64 -27.33,-70.68 -4.61,-11.57 -9.5,-24.36 -14.57,-34.44 -12.18,-24.21 -25.26,-20.9 -51.44,-20.9 -24.99,0 -42.96,24.5 -53.69,39.65 -11.31,15.96 -23.31,42.83 -23.31,70.03z"/>
  </g>
 </g>
</svg>
